<svg width="20" height="22" viewBox="0 0 20 22" fill="none" xmlns="http://www.w3.org/2000/svg">
<g clip-path="url(#clip0_51_522)">
<path d="M9.29399 10.4883L0.0825195 20.1391C0.185963 20.5057 0.371855 20.8438 0.625985 21.1275C0.880115 21.4113 1.19576 21.6332 1.54878 21.7762C1.9018 21.9193 2.28285 21.9797 2.66282 21.9529C3.04278 21.9261 3.41159 21.8128 3.74105 21.6217L14.1057 15.7187L9.29399 10.4883Z" fill="#EA4335"/>
<path d="M18.6084 8.84775L14.1264 6.28052L9.0813 10.7077L14.1469 15.7048L18.5948 13.165C18.9888 12.9587 19.3189 12.6485 19.5491 12.268C19.7794 11.8874 19.9012 11.4511 19.9012 11.0064C19.9012 10.5616 19.7794 10.1253 19.5491 9.74476C19.3189 9.36424 18.9888 9.054 18.5948 8.84768H18.6085L18.6084 8.84775Z" fill="#FBBC04"/>
<path d="M0.0824285 1.82593C0.0267504 2.03177 -0.000966116 2.24416 2.5703e-05 2.4574V19.5076C0.000602976 19.7207 0.0282928 19.9329 0.0824285 20.1391L9.60967 10.7354L0.0824285 1.82593Z" fill="#4285F4"/>
<path d="M9.36263 10.9824L14.1263 6.28058L3.77541 0.350061C3.38597 0.121982 2.94303 0.00119582 2.49171 4.76773e-06C1.37173 -0.00217191 0.387099 0.741164 0.0825195 1.81901L9.36263 10.9824Z" fill="#34A853"/>
</g>
<defs>
<clipPath id="clip0_51_522">
<rect width="19.9011" height="22" fill="white"/>
</clipPath>
</defs>
</svg>
