<svg width="15" height="18" viewBox="0 0 15 18" fill="none" xmlns="http://www.w3.org/2000/svg">
<path d="M0.841964 10.7104C0.962992 10.5856 1.11207 10.5274 1.2892 10.5357C1.46633 10.544 1.62821 10.6047 1.77483 10.7179C2.58767 11.3925 3.47569 11.8941 4.43888 12.2228C5.40208 12.5515 6.37872 12.7083 7.3688 12.6933C8.35887 12.6783 9.33221 12.4937 10.2888 12.1396C11.2454 11.7856 12.116 11.2626 12.9005 10.5707C13.0434 10.4528 13.2067 10.3834 13.3907 10.3624C13.5746 10.3414 13.7291 10.3915 13.8541 10.5128C13.9792 10.6342 14.0391 10.7815 14.0339 10.9548C14.0287 11.1281 13.9624 11.2737 13.8349 11.3917C12.9219 12.2154 11.9081 12.8381 10.7934 13.26C9.67881 13.6818 8.54346 13.9015 7.3874 13.919C6.23135 13.9366 5.08781 13.7498 3.95678 13.3585C2.82575 12.9673 1.79543 12.3701 0.865813 11.5669C0.733936 11.4532 0.666591 11.3132 0.663778 11.1469C0.660964 10.9807 0.72036 10.8352 0.841964 10.7104Z" fill="white"/>
<path d="M9.87872 10.9135C10.0412 10.9207 10.1999 10.863 10.32 10.7532C10.44 10.6434 10.5114 10.4904 10.5187 10.3279L10.7362 5.42485C10.7412 5.34355 10.73 5.26206 10.7032 5.18514C10.6764 5.10821 10.6345 5.0374 10.58 4.97683C10.5256 4.91626 10.4596 4.86714 10.3859 4.83234C10.3123 4.79754 10.2324 4.77776 10.1511 4.77415C10.0697 4.77054 9.9884 4.78318 9.91196 4.81132C9.83551 4.83945 9.76544 4.88254 9.70582 4.93805C9.6462 4.99356 9.59824 5.06039 9.56473 5.13463C9.53122 5.20888 9.51283 5.28906 9.51063 5.37049L9.35876 8.79405L3.87433 2.80045C3.76449 2.68042 3.61147 2.60893 3.44893 2.60172C3.28639 2.59451 3.12764 2.65216 3.00761 2.762C2.88757 2.87184 2.81609 3.02486 2.80888 3.1874C2.80167 3.34994 2.85932 3.50869 2.96916 3.62873L8.45359 9.62232L5.03003 9.47045C4.86923 9.46612 4.71316 9.52511 4.59544 9.63473C4.47772 9.74434 4.40776 9.89581 4.40063 10.0565C4.3935 10.2172 4.44977 10.3743 4.55733 10.4939C4.66488 10.6135 4.81511 10.6861 4.97566 10.696L9.87872 10.9135Z" fill="white"/>
</svg>
