<svg width="71" height="71" viewBox="0 0 71 71" fill="none" xmlns="http://www.w3.org/2000/svg">
<g clip-path="url(#clip0_14_784)">
<path d="M71 62.125L57.6875 71V66.5625H36.6094L45.4844 57.6875H57.6875V53.25L71 62.125ZM0 8.875L13.3125 0V4.4375H34.3906L25.5156 13.3125H13.3125V17.75L0 8.875ZM43.2212 0L0 43.2212L27.7788 71L71 27.7788L43.2212 0ZM6.16813 43.2212L43.2212 6.16813L64.8319 27.7788L27.7788 64.8319L6.16813 43.2212Z" fill="black"/>
<path d="M18.5044 43.2213L15.3981 46.3275L24.6725 55.6019L27.7788 52.4957L31.0625 55.5575L43.2213 43.2213C41.1632 45.2194 38.4017 46.3276 35.5334 46.3064C32.6651 46.2852 29.9202 45.1363 27.892 43.1081C25.8637 41.0798 24.7148 38.335 24.6937 35.4666C24.6725 32.5983 25.7807 29.8368 27.7788 27.7788L15.4425 39.9375L18.5044 43.2213Z" fill="black"/>
<path d="M55.5575 24.7169L46.2832 15.4425L43.1769 18.5488L39.9375 15.4425L27.7788 27.7788C29.8368 25.7807 32.5983 24.6725 35.4666 24.6937C38.335 24.7148 41.0798 25.8637 43.1081 27.892C45.1364 29.9202 46.2852 32.6651 46.3064 35.5334C46.3276 38.4017 45.2194 41.1632 43.2213 43.2213L55.5575 31.0625L52.4513 27.9563L55.5575 24.7169Z" fill="black"/>
</g>
<defs>
<clipPath id="clip0_14_784">
<rect width="71" height="71" fill="white"/>
</clipPath>
</defs>
</svg>
