<svg width="79" height="79" viewBox="0 0 79 79" fill="none" xmlns="http://www.w3.org/2000/svg">
<g clip-path="url(#clip0_14_788)">
<path d="M62.5417 55.9583V62.5417H23.0417V55.9583C23.0417 55.9583 23.0417 42.7917 42.7917 42.7917C62.5417 42.7917 62.5417 55.9583 62.5417 55.9583ZM52.6667 26.3333C52.6667 24.3803 52.0875 22.471 51.0024 20.8471C49.9174 19.2232 48.3751 17.9575 46.5707 17.21C44.7662 16.4626 42.7807 16.2671 40.8652 16.6481C38.9496 17.0291 37.19 17.9696 35.809 19.3507C34.4279 20.7317 33.4874 22.4913 33.1064 24.4068C32.7254 26.3224 32.9209 28.3079 33.6684 30.1123C34.4158 31.9168 35.6815 33.459 37.3054 34.5441C38.9293 35.6292 40.8386 36.2083 42.7917 36.2083C45.4107 36.2083 47.9224 35.1679 49.7743 33.316C51.6263 31.4641 52.6667 28.9524 52.6667 26.3333ZM63.2 42.9892C64.9993 44.6492 66.45 46.651 67.4673 48.8777C68.4845 51.1044 69.0481 53.5115 69.125 55.9583V62.5417H79V55.9583C79 55.9583 79 44.6021 63.2 42.9892ZM59.25 16.4583C58.2554 16.4584 57.267 16.6139 56.3204 16.9192C58.2462 19.6808 59.2787 22.9666 59.2787 26.3333C59.2787 29.7001 58.2462 32.9859 56.3204 35.7475C57.267 36.0528 58.2554 36.2083 59.25 36.2083C61.869 36.2083 64.3808 35.1679 66.2327 33.316C68.0846 31.4641 69.125 28.9524 69.125 26.3333C69.125 23.7143 68.0846 21.2026 66.2327 19.3507C64.3808 17.4987 61.869 16.4583 59.25 16.4583ZM26.3333 32.9167H16.4583V23.0417H9.875V32.9167H0V39.5H9.875V49.375H16.4583V39.5H26.3333V32.9167Z" fill="black"/>
</g>
<defs>
<clipPath id="clip0_14_788">
<rect width="79" height="79" fill="white"/>
</clipPath>
</defs>
</svg>
