<svg width="80" height="80" viewBox="0 0 80 80" fill="none" xmlns="http://www.w3.org/2000/svg">
<path d="M20 26.6667C20 19.3 25.9667 13.3333 33.3333 13.3333C40.7 13.3333 46.6667 19.3 46.6667 26.6667C46.6667 34.0333 40.7 40 33.3333 40C25.9667 40 20 34.0333 20 26.6667ZM40 60.6667C40 57.4667 41.6667 54.4667 44 52.4667V51.6667C44 50.3667 44.2333 49.1333 44.6 47.9333C41.1667 47.1333 37.3667 46.6667 33.3333 46.6667C18.6 46.6667 6.66666 52.6333 6.66666 60V66.6667H40V60.6667ZM73.3333 61V72.6667C73.3333 74.6667 71.3333 76.6667 69 76.6667H50.6667C48.6667 76.6667 46.6667 74.6667 46.6667 72.3333V60.6667C46.6667 58.6667 48.6667 56.6667 50.6667 56.6667V51.6667C50.6667 47 55.3333 43.3333 60 43.3333C64.6667 43.3333 69.3333 47 69.3333 51.6667V56.6667C71.3333 56.6667 73.3333 58.6667 73.3333 61ZM65 51.6667C65 49 62.6667 47.3333 60 47.3333C57.3333 47.3333 55 49 55 51.6667V56.6667H65V51.6667Z" fill="black"/>
</svg>
