<svg width="81" height="81" viewBox="0 0 81 81" fill="none" xmlns="http://www.w3.org/2000/svg">
<path d="M11.0444 13.4986C7.9947 13.4986 5.5242 15.9165 5.5242 18.9013V62.0986C5.5242 65.0835 7.9947 67.5013 11.0444 67.5013H69.9557C73.0053 67.5013 75.4758 65.0835 75.4758 62.0986V18.9013C75.4758 15.9165 73.0053 13.4986 69.9557 13.4986H11.0444ZM69.9557 8.09999C76.055 8.09999 81 12.9357 81 18.9013V62.0986C81 68.0643 76.055 72.9 69.9557 72.9H11.0444C4.94505 72.9 0 68.0643 0 62.0986V18.9013C0 12.9357 4.94505 8.09999 11.0444 8.09999H69.9557ZM33.0764 53.1886H16.2C15.8412 53.1844 15.4851 53.2509 15.152 53.3844C14.8189 53.5179 14.5154 53.7157 14.2588 53.9666C14.0023 54.2175 13.7977 54.5165 13.6569 54.8466C13.516 55.1766 13.4416 55.5312 13.4379 55.89C13.4379 57.3804 14.6732 58.5913 16.2 58.5913H33.0764C33.4348 58.5951 33.7905 58.5282 34.1231 58.3944C34.4558 58.2607 34.7588 58.0628 35.0149 57.8119C35.271 57.5611 35.4752 57.2622 35.6158 56.9325C35.7564 56.6027 35.8307 56.2485 35.8344 55.89C35.8307 55.5315 35.7564 55.1773 35.6158 54.8475C35.4752 54.5177 35.271 54.2189 35.0149 53.9681C34.7588 53.7172 34.4558 53.5193 34.1231 53.3855C33.7905 53.2518 33.4348 53.1849 33.0764 53.1886ZM55.6875 21.5986C49.5153 21.5986 44.4893 26.4222 44.4893 32.4C44.4893 35.5306 45.8663 38.3454 48.0695 40.3177C43.898 42.7801 41.1156 47.2149 41.1156 52.2814C41.1156 53.7273 41.3424 55.1488 41.7839 56.5056C42.2496 57.9231 43.8048 58.7088 45.2547 58.2552C45.5969 58.1527 45.9152 57.983 46.1911 57.7561C46.467 57.5292 46.6949 57.2496 46.8616 56.9337C47.0282 56.6177 47.1303 56.2717 47.1617 55.9159C47.1932 55.5601 47.1534 55.2016 47.0448 54.8613C46.7741 54.0282 46.6374 53.1574 46.6398 52.2814C46.6398 47.5227 50.6777 43.6428 55.6875 43.6428C60.6974 43.6428 64.7393 47.5227 64.7393 52.2814C64.7393 52.9821 64.6542 53.6665 64.4841 54.3307C64.3987 54.6779 64.3832 55.0385 64.4385 55.3917C64.4937 55.7449 64.6186 56.0836 64.8059 56.3881C64.9932 56.6925 65.2391 56.9568 65.5294 57.1654C65.8197 57.374 66.1486 57.5228 66.497 57.6031C67.2013 57.7798 67.9469 57.6725 68.5728 57.3042C69.1987 56.936 69.6546 56.3364 69.8423 55.6348C70.1217 54.5413 70.2594 53.4195 70.2594 52.2814C70.2594 47.2149 67.4771 42.7801 63.3055 40.3096C65.5088 38.3454 66.8857 35.5306 66.8857 32.4C66.8857 26.4222 61.8638 21.5986 55.6875 21.5986ZM33.0764 39.0136H16.2C15.8412 39.0094 15.4851 39.0759 15.152 39.2094C14.8189 39.3429 14.5154 39.5407 14.2588 39.7916C14.0023 40.0425 13.7977 40.3415 13.6569 40.6716C13.516 41.0016 13.4416 41.3562 13.4379 41.715C13.4379 43.2054 14.6732 44.4163 16.2 44.4163H33.0764C33.4348 44.4201 33.7905 44.3532 34.1231 44.2194C34.4558 44.0857 34.7588 43.8878 35.0149 43.6369C35.271 43.3861 35.4752 43.0872 35.6158 42.7575C35.7564 42.4277 35.8307 42.0735 35.8344 41.715C35.8307 41.3565 35.7564 41.0023 35.6158 40.6725C35.4752 40.3427 35.271 40.0439 35.0149 39.7931C34.7588 39.5422 34.4558 39.3443 34.1231 39.2105C33.7905 39.0768 33.4348 39.0099 33.0764 39.0136ZM55.6875 27.0013C58.8344 27.0013 61.3656 29.4313 61.3656 32.4C61.3656 35.3727 58.8344 37.7986 55.6875 37.7986C52.5407 37.7986 50.0094 35.3686 50.0094 32.4C50.0094 29.4273 52.5407 27.0013 55.6875 27.0013ZM33.0764 24.8386H16.2C15.8412 24.8344 15.4851 24.9009 15.152 25.0344C14.8189 25.1679 14.5154 25.3657 14.2588 25.6166C14.0023 25.8675 13.7977 26.1665 13.6569 26.4966C13.516 26.8266 13.4416 27.1812 13.4379 27.54C13.4379 29.0304 14.6732 30.2413 16.2 30.2413H33.0764C33.4348 30.2451 33.7905 30.1782 34.1231 30.0444C34.4558 29.9107 34.7588 29.7128 35.0149 29.4619C35.271 29.2111 35.4752 28.9122 35.6158 28.5825C35.7564 28.2527 35.8307 27.8985 35.8344 27.54C35.8307 27.1815 35.7564 26.8273 35.6158 26.4975C35.4752 26.1677 35.271 25.8689 35.0149 25.6181C34.7588 25.3672 34.4558 25.1693 34.1231 25.0355C33.7905 24.9018 33.4348 24.8349 33.0764 24.8386Z" fill="black"/>
</svg>
