<svg width="212" height="57" viewBox="0 0 212 57" fill="none" xmlns="http://www.w3.org/2000/svg">
<path d="M62.9022 43V15.2595H77.3669V20.015H68.3314V26.9501H76.178V31.5471H68.3314V43H62.9022ZM86.0888 43H81.9277C80.7652 41.5205 79.9726 40.041 79.5499 38.5615C79.1272 37.082 78.9159 35.2327 78.9159 33.0134V22.7494H84.1866V33.4097C84.1866 35.8139 84.6621 37.6236 85.6132 38.8389H89.2987V22.7494H94.5694V43H90.4084L89.695 41.5733C88.6911 42.5244 87.489 43 86.0888 43ZM99.9417 22.7494H108.7V26.9105H102.518L106.282 32.4982C107.973 34.9024 108.911 36.5536 109.096 37.4519C109.202 37.8746 109.255 38.3105 109.255 38.7597C109.255 40.6354 108.554 42.0489 107.154 43H97.0488V38.8389H104.301L100.061 32.6171C99.8757 32.3265 99.585 31.917 99.1887 31.3886C98.8189 30.8602 98.5283 30.4375 98.3169 30.1205C98.1055 29.777 97.9602 29.526 97.881 29.3675C97.8017 29.209 97.696 29.0108 97.5639 28.7731C97.4318 28.5089 97.3394 28.2843 97.2865 28.0994C97.1809 27.5974 97.128 27.1879 97.128 26.8709C97.128 24.9422 98.0659 23.5684 99.9417 22.7494ZM111.815 43V22.7494H117.046V43H111.815ZM111.815 15.2595H117.046V20.6094H111.815V15.2595ZM132.493 43H123.853C121.211 40.543 119.89 37.1877 119.89 32.9341C119.89 30.7942 120.181 28.9316 120.762 27.3464C121.37 25.7612 122.321 24.2289 123.616 22.7494H132.889C134.263 24.3346 135.201 25.8801 135.703 27.386C136.204 28.8655 136.455 30.7149 136.455 32.9341C136.455 37.1877 135.135 40.543 132.493 43ZM126.667 38.8389H129.679C130.63 36.9896 131.106 34.8892 131.106 32.5379C131.106 30.1865 130.617 28.3107 129.639 26.9105H126.667C125.716 28.2579 125.24 30.1733 125.24 32.6567C125.24 35.1138 125.716 37.1745 126.667 38.8389ZM148.09 22.7494H152.291C153.453 24.2289 154.246 25.7084 154.669 27.1879C155.091 28.6674 155.303 30.5168 155.303 32.736V43H150.032V32.3397C150.032 29.8299 149.688 28.0201 149.002 26.9105H144.563V43H139.292V22.7494H143.414L144.127 24.1761C144.708 23.6477 145.25 23.2778 145.752 23.0664C146.28 22.8551 147.06 22.7494 148.09 22.7494ZM164.113 20.015V29.9223H167.64C169.093 28.7334 169.82 26.9897 169.82 24.6912C169.82 23.7137 169.622 22.789 169.226 21.9172C168.856 21.0454 168.407 20.4113 167.878 20.015H164.113ZM158.763 43V15.2595H169.503C171.299 16.0521 172.713 17.2674 173.743 18.9054C174.8 20.5434 175.328 22.4588 175.328 24.6516C175.328 26.818 174.787 28.8259 173.704 30.6753C172.62 32.5246 171.022 33.8324 168.909 34.5986H164.113V43H158.763ZM185.996 33.8456H181.755C181.2 34.5325 180.923 35.3912 180.923 36.4215C180.923 37.4519 181.214 38.2577 181.795 38.8389H185.996V33.8456ZM177.475 22.7494H187.303C188.888 23.7005 189.932 24.7969 190.434 26.0386C190.936 27.2539 191.187 28.9184 191.187 31.0319V36.9763C191.187 39.1692 191.24 41.1771 191.346 43H186.828L186.114 41.5733C185.084 42.5244 183.631 43 181.755 43H179.259C177.013 41.5205 175.89 39.3937 175.89 36.6197C175.89 33.8192 177.039 31.6132 179.338 30.0016H183.063C184.093 30.0016 185.058 30.3186 185.956 30.9527V28.9712C185.956 27.9409 185.507 27.2539 184.609 26.9105H177.475V22.7494ZM194.477 31.8642V22.7494H199.747V31.9038C199.747 34.2023 200.21 36.1177 201.134 37.65H203.472C204.344 36.1441 204.78 34.2287 204.78 31.9038V22.7494H210.051V31.5868C210.051 33.5682 209.787 35.3119 209.258 36.8178C208.756 38.3237 207.924 40.0278 206.762 41.93L204.106 46.2496C203.631 47.0686 203.129 47.6763 202.601 48.0726C202.072 48.4688 201.385 48.7595 200.54 48.9444H194.278V44.7833H198.558C199.113 44.6248 199.576 44.3474 199.945 43.9511C200.315 43.5548 200.698 42.9868 201.095 42.247L201.332 41.8111H198.598C197.33 40.7808 196.326 39.3937 195.586 37.65C194.846 35.8799 194.477 33.9513 194.477 31.8642Z" fill="#000D7E"/>
<path d="M17.0283 16.8822C17.7219 15.4807 19.1483 14.5918 20.7121 14.5866L30.4769 14.5544C31.9061 14.5497 33.2359 15.285 33.9917 16.498L39.935 26.0354C40.6909 27.2483 40.7651 28.7661 40.1312 30.047L35.8001 38.7988C35.1065 40.2003 33.6801 41.0892 32.1163 41.0944L22.3515 41.1266L22.3607 43.9005L22.3515 41.1266C20.9224 41.1313 19.5926 40.396 18.8367 39.183L12.8934 29.6456C12.1375 28.4327 12.0633 26.9149 12.6972 25.634L17.0283 16.8822Z" stroke="#000D7E" stroke-width="7.46506"/>
<path d="M17.0283 16.8822C17.7219 15.4807 19.1483 14.5918 20.7121 14.5866L30.4769 14.5544C31.9061 14.5497 33.2359 15.285 33.9917 16.498L39.935 26.0354C40.6909 27.2483 40.7651 28.7661 40.1312 30.047L35.8001 38.7988C35.1065 40.2003 33.6801 41.0892 32.1163 41.0944L22.3515 41.1266L22.3607 43.9005L22.3515 41.1266C20.9224 41.1313 19.5926 40.396 18.8367 39.183L12.8934 29.6456C12.1375 28.4327 12.0633 26.9149 12.6972 25.634L17.0283 16.8822Z" stroke="#000D7E" stroke-width="7.46506"/>
<path d="M29.5639 16.9405C30.2576 15.5389 31.684 14.65 33.2478 14.6449L43.0125 14.6127C44.4417 14.6079 45.7715 15.3433 46.5274 16.5562L52.4707 26.0936C53.2265 27.3066 53.3008 28.8243 52.6669 30.1052L48.3358 38.857C47.6422 40.2585 46.2157 41.1474 44.6519 41.1526L34.8872 41.1848L34.8963 43.9588L34.8872 41.1848C33.458 41.1895 32.1282 40.4542 31.3723 39.2412L25.429 29.7038C24.6732 28.4909 24.5989 26.9731 25.2329 25.6922L29.5639 16.9405Z" stroke="#000D7E" stroke-width="7.46506"/>
<path d="M29.5639 16.9405C30.2576 15.5389 31.684 14.65 33.2478 14.6449L43.0125 14.6127C44.4417 14.6079 45.7715 15.3433 46.5274 16.5562L52.4707 26.0936C53.2265 27.3066 53.3008 28.8243 52.6669 30.1052L48.3358 38.857C47.6422 40.2585 46.2157 41.1474 44.6519 41.1526L34.8872 41.1848L34.8963 43.9588L34.8872 41.1848C33.458 41.1895 32.1282 40.4542 31.3723 39.2412L25.429 29.7038C24.6732 28.4909 24.5989 26.9731 25.2329 25.6922L29.5639 16.9405Z" stroke="#000D7E" stroke-width="7.46506"/>
</svg>
